<svg width="509" height="502" viewBox="0 0 509 502" fill="none" xmlns="http://www.w3.org/2000/svg">
<rect width="509" height="502" fill="#F5F5F5"/>
<path d="M502.059 253.061C502.645 252.475 502.645 251.525 502.059 250.939L492.513 241.393C491.927 240.808 490.977 240.808 490.392 241.393C489.806 241.979 489.806 242.929 490.392 243.515L498.877 252L490.392 260.485C489.806 261.071 489.806 262.021 490.392 262.607C490.977 263.192 491.927 263.192 492.513 262.607L502.059 253.061ZM0.99826 253.5H500.998V250.5H0.99826V253.5Z" fill="black"/>
<path d="M252.061 0.939941C251.475 0.354156 250.525 0.354156 249.939 0.939941L240.393 10.4859C239.808 11.0717 239.808 12.0214 240.393 12.6072C240.979 13.193 241.929 13.193 242.515 12.6072L251 4.12192L259.485 12.6072C260.071 13.193 261.021 13.193 261.607 12.6072C262.192 12.0214 262.192 11.0717 261.607 10.4859L252.061 0.939941ZM252.5 502.001V2.00061H249.5V502.001H252.5Z" fill="black"/>
<line x1="153.5" y1="242" x2="153.5" y2="262" stroke="black" stroke-width="5"/>
<line x1="241" y1="349.5" x2="261" y2="349.5" stroke="black" stroke-width="5"/>
<line x1="241" y1="49.5" x2="261" y2="49.5" stroke="black" stroke-width="5"/>
<line x1="241" y1="149.5" x2="261" y2="149.5" stroke="black" stroke-width="5"/>
<line x1="241" y1="449.5" x2="261" y2="449.5" stroke="black" stroke-width="5"/>
<line x1="453.5" y1="242" x2="453.5" y2="262" stroke="black" stroke-width="5"/>
<line x1="353.5" y1="242" x2="353.5" y2="262" stroke="black" stroke-width="5"/>
<line x1="53.5" y1="242" x2="53.5" y2="262" stroke="black" stroke-width="5"/>
<path d="M140.403 273.222V275.142H135.097V273.222H140.403ZM142.511 280V268.364H147.102C147.981 268.364 148.731 268.521 149.352 268.835C149.977 269.146 150.453 269.587 150.778 270.159C151.108 270.727 151.273 271.396 151.273 272.165C151.273 272.937 151.106 273.602 150.773 274.159C150.439 274.712 149.956 275.136 149.324 275.432C148.695 275.727 147.934 275.875 147.04 275.875H143.966V273.898H146.642C147.112 273.898 147.502 273.833 147.812 273.705C148.123 273.576 148.354 273.383 148.506 273.125C148.661 272.867 148.739 272.547 148.739 272.165C148.739 271.778 148.661 271.453 148.506 271.188C148.354 270.922 148.121 270.722 147.807 270.585C147.496 270.445 147.104 270.375 146.631 270.375H144.972V280H142.511ZM148.795 274.705L151.688 280H148.972L146.142 274.705H148.795ZM158.034 267.818L154.284 281.75H152.199L155.949 267.818H158.034ZM159.178 280V278.227L163.32 274.392C163.672 274.051 163.967 273.744 164.206 273.472C164.448 273.199 164.632 272.932 164.757 272.67C164.882 272.405 164.945 272.119 164.945 271.812C164.945 271.472 164.867 271.178 164.712 270.932C164.556 270.682 164.344 270.491 164.075 270.358C163.806 270.222 163.501 270.153 163.161 270.153C162.804 270.153 162.494 270.225 162.229 270.369C161.964 270.513 161.759 270.72 161.615 270.989C161.471 271.258 161.399 271.578 161.399 271.949H159.064C159.064 271.187 159.236 270.527 159.581 269.966C159.926 269.405 160.409 268.972 161.03 268.665C161.651 268.358 162.367 268.205 163.178 268.205C164.011 268.205 164.736 268.352 165.354 268.648C165.975 268.939 166.458 269.345 166.803 269.864C167.147 270.383 167.32 270.977 167.32 271.648C167.32 272.087 167.232 272.521 167.058 272.949C166.888 273.377 166.583 273.852 166.143 274.375C165.704 274.894 165.085 275.517 164.286 276.244L162.587 277.909V277.989H167.473V280H159.178Z" fill="black"/>
<g filter="url(#filter0_i_0_1)">
<path d="M205.747 348.222V350.142H200.44V348.222H205.747ZM207.855 355V343.364H212.446C213.325 343.364 214.075 343.521 214.696 343.835C215.321 344.146 215.796 344.587 216.122 345.159C216.452 345.727 216.616 346.396 216.616 347.165C216.616 347.937 216.45 348.602 216.116 349.159C215.783 349.712 215.3 350.136 214.668 350.432C214.039 350.727 213.277 350.875 212.384 350.875H209.31V348.898H211.986C212.455 348.898 212.846 348.833 213.156 348.705C213.467 348.576 213.698 348.383 213.849 348.125C214.005 347.867 214.082 347.547 214.082 347.165C214.082 346.778 214.005 346.453 213.849 346.188C213.698 345.922 213.465 345.722 213.151 345.585C212.84 345.445 212.448 345.375 211.974 345.375H210.315V355H207.855ZM214.139 349.705L217.031 355H214.315L211.486 349.705H214.139ZM223.378 342.818L219.628 356.75H217.543L221.293 342.818H223.378ZM224.521 355V353.227L228.663 349.392C229.016 349.051 229.311 348.744 229.55 348.472C229.792 348.199 229.976 347.932 230.101 347.67C230.226 347.405 230.288 347.119 230.288 346.812C230.288 346.472 230.211 346.178 230.055 345.932C229.9 345.682 229.688 345.491 229.419 345.358C229.15 345.222 228.845 345.153 228.504 345.153C228.148 345.153 227.838 345.225 227.572 345.369C227.307 345.513 227.103 345.72 226.959 345.989C226.815 346.258 226.743 346.578 226.743 346.949H224.408C224.408 346.187 224.58 345.527 224.925 344.966C225.269 344.405 225.752 343.972 226.374 343.665C226.995 343.358 227.711 343.205 228.521 343.205C229.355 343.205 230.08 343.352 230.697 343.648C231.319 343.939 231.802 344.345 232.146 344.864C232.491 345.383 232.663 345.977 232.663 346.648C232.663 347.087 232.576 347.521 232.402 347.949C232.232 348.377 231.927 348.852 231.487 349.375C231.048 349.894 230.429 350.517 229.629 351.244L227.93 352.909V352.989H232.817V355H224.521Z" fill="black"/>
</g>
<path d="M207.011 155V143.364H211.602C212.481 143.364 213.231 143.521 213.852 143.835C214.477 144.146 214.953 144.587 215.278 145.159C215.608 145.727 215.773 146.396 215.773 147.165C215.773 147.937 215.606 148.602 215.273 149.159C214.939 149.712 214.456 150.136 213.824 150.432C213.195 150.727 212.434 150.875 211.54 150.875H208.466V148.898H211.142C211.612 148.898 212.002 148.833 212.312 148.705C212.623 148.576 212.854 148.383 213.006 148.125C213.161 147.867 213.239 147.547 213.239 147.165C213.239 146.778 213.161 146.453 213.006 146.188C212.854 145.922 212.621 145.722 212.307 145.585C211.996 145.445 211.604 145.375 211.131 145.375H209.472V155H207.011ZM213.295 149.705L216.188 155H213.472L210.642 149.705H213.295ZM222.534 142.818L218.784 156.75H216.699L220.449 142.818H222.534ZM223.678 155V153.227L227.82 149.392C228.172 149.051 228.467 148.744 228.706 148.472C228.948 148.199 229.132 147.932 229.257 147.67C229.382 147.405 229.445 147.119 229.445 146.812C229.445 146.472 229.367 146.178 229.212 145.932C229.056 145.682 228.844 145.491 228.575 145.358C228.306 145.222 228.001 145.153 227.661 145.153C227.304 145.153 226.994 145.225 226.729 145.369C226.464 145.513 226.259 145.72 226.115 145.989C225.971 146.258 225.899 146.578 225.899 146.949H223.564C223.564 146.187 223.736 145.527 224.081 144.966C224.426 144.405 224.909 143.972 225.53 143.665C226.151 143.358 226.867 143.205 227.678 143.205C228.511 143.205 229.236 143.352 229.854 143.648C230.475 143.939 230.958 144.345 231.303 144.864C231.647 145.383 231.82 145.977 231.82 146.648C231.82 147.087 231.732 147.521 231.558 147.949C231.388 148.377 231.083 148.852 230.643 149.375C230.204 149.894 229.585 150.517 228.786 151.244L227.087 152.909V152.989H231.973V155H223.678Z" fill="black"/>
<path d="M342.011 280V268.364H346.602C347.481 268.364 348.231 268.521 348.852 268.835C349.477 269.146 349.953 269.587 350.278 270.159C350.608 270.727 350.773 271.396 350.773 272.165C350.773 272.937 350.606 273.602 350.273 274.159C349.939 274.712 349.456 275.136 348.824 275.432C348.195 275.727 347.434 275.875 346.54 275.875H343.466V273.898H346.142C346.612 273.898 347.002 273.833 347.312 273.705C347.623 273.576 347.854 273.383 348.006 273.125C348.161 272.867 348.239 272.547 348.239 272.165C348.239 271.778 348.161 271.453 348.006 271.188C347.854 270.922 347.621 270.722 347.307 270.585C346.996 270.445 346.604 270.375 346.131 270.375H344.472V280H342.011ZM348.295 274.705L351.188 280H348.472L345.642 274.705H348.295ZM357.534 267.818L353.784 281.75H351.699L355.449 267.818H357.534ZM358.678 280V278.227L362.82 274.392C363.172 274.051 363.467 273.744 363.706 273.472C363.948 273.199 364.132 272.932 364.257 272.67C364.382 272.405 364.445 272.119 364.445 271.812C364.445 271.472 364.367 271.178 364.212 270.932C364.056 270.682 363.844 270.491 363.575 270.358C363.306 270.222 363.001 270.153 362.661 270.153C362.304 270.153 361.994 270.225 361.729 270.369C361.464 270.513 361.259 270.72 361.115 270.989C360.971 271.258 360.899 271.578 360.899 271.949H358.564C358.564 271.187 358.736 270.527 359.081 269.966C359.426 269.405 359.909 268.972 360.53 268.665C361.151 268.358 361.867 268.205 362.678 268.205C363.511 268.205 364.236 268.352 364.854 268.648C365.475 268.939 365.958 269.345 366.303 269.864C366.647 270.383 366.82 270.977 366.82 271.648C366.82 272.087 366.732 272.521 366.558 272.949C366.388 273.377 366.083 273.852 365.643 274.375C365.204 274.894 364.585 275.517 363.786 276.244L362.087 277.909V277.989H366.973V280H358.678Z" fill="black"/>
<path d="M224.511 55V43.3636H229.102C229.981 43.3636 230.731 43.5208 231.352 43.8352C231.977 44.1458 232.453 44.5871 232.778 45.1591C233.108 45.7273 233.273 46.3958 233.273 47.1648C233.273 47.9375 233.106 48.6023 232.773 49.1591C232.439 49.7121 231.956 50.1364 231.324 50.4318C230.695 50.7273 229.934 50.875 229.04 50.875H225.966V48.8977H228.642C229.112 48.8977 229.502 48.8333 229.812 48.7045C230.123 48.5758 230.354 48.3826 230.506 48.125C230.661 47.8674 230.739 47.5473 230.739 47.1648C230.739 46.7784 230.661 46.4527 230.506 46.1875C230.354 45.9223 230.121 45.7216 229.807 45.5852C229.496 45.4451 229.104 45.375 228.631 45.375H226.972V55H224.511ZM230.795 49.7045L233.688 55H230.972L228.142 49.7045H230.795Z" fill="black"/>
<path d="M268.999 15.0909C268.61 15.0909 268.255 15.0601 267.933 14.9986C267.611 14.9418 267.346 14.8684 267.138 14.7784L268.203 12.5199C268.539 12.6288 268.845 12.6856 269.119 12.6903C269.399 12.6951 269.654 12.6241 269.886 12.4773C270.118 12.3305 270.331 12.089 270.526 11.7528L270.795 11.2912L268.75 0.0909088H271.818L272.741 8.11648H272.855L276.47 0.0909088H279.787L273.544 12.179C273.236 12.7708 272.872 13.2846 272.45 13.7202C272.034 14.1558 271.539 14.492 270.966 14.7287C270.398 14.9702 269.742 15.0909 268.999 15.0909Z" fill="black"/>
<path d="M501.145 228.091L502.509 231.905L505.2 228.091H508.304L504.234 233.545L506.571 239H503.482L501.955 235.229L499.213 239H496.088L500.236 233.545L498.02 228.091H501.145Z" fill="black"/>
<path d="M449.511 280V268.364H454.102C454.981 268.364 455.731 268.521 456.352 268.835C456.977 269.146 457.453 269.587 457.778 270.159C458.108 270.727 458.273 271.396 458.273 272.165C458.273 272.937 458.106 273.602 457.773 274.159C457.439 274.712 456.956 275.136 456.324 275.432C455.695 275.727 454.934 275.875 454.04 275.875H450.966V273.898H453.642C454.112 273.898 454.502 273.833 454.812 273.705C455.123 273.576 455.354 273.383 455.506 273.125C455.661 272.867 455.739 272.547 455.739 272.165C455.739 271.778 455.661 271.453 455.506 271.188C455.354 270.922 455.121 270.722 454.807 270.585C454.496 270.445 454.104 270.375 453.631 270.375H451.972V280H449.511ZM455.795 274.705L458.688 280H455.972L453.142 274.705H455.795Z" fill="black"/>
<path d="M48.9034 273.222V275.142H43.5966V273.222H48.9034ZM51.0114 280V268.364H55.6023C56.4811 268.364 57.2311 268.521 57.8523 268.835C58.4773 269.146 58.9527 269.587 59.2784 270.159C59.608 270.727 59.7727 271.396 59.7727 272.165C59.7727 272.937 59.6061 273.602 59.2727 274.159C58.9394 274.712 58.4564 275.136 57.8239 275.432C57.1951 275.727 56.4337 275.875 55.5398 275.875H52.4659V273.898H55.142C55.6117 273.898 56.0019 273.833 56.3125 273.705C56.6231 273.576 56.8542 273.383 57.0057 273.125C57.161 272.867 57.2386 272.547 57.2386 272.165C57.2386 271.778 57.161 271.453 57.0057 271.188C56.8542 270.922 56.6212 270.722 56.3068 270.585C55.9962 270.445 55.6042 270.375 55.1307 270.375H53.4716V280H51.0114ZM57.2955 274.705L60.1875 280H57.4716L54.642 274.705H57.2955Z" fill="black"/>
<path d="M222.403 448.222V450.142H217.097V448.222H222.403ZM224.511 455V443.364H229.102C229.981 443.364 230.731 443.521 231.352 443.835C231.977 444.146 232.453 444.587 232.778 445.159C233.108 445.727 233.273 446.396 233.273 447.165C233.273 447.937 233.106 448.602 232.773 449.159C232.439 449.712 231.956 450.136 231.324 450.432C230.695 450.727 229.934 450.875 229.04 450.875H225.966V448.898H228.642C229.112 448.898 229.502 448.833 229.812 448.705C230.123 448.576 230.354 448.383 230.506 448.125C230.661 447.867 230.739 447.547 230.739 447.165C230.739 446.778 230.661 446.453 230.506 446.188C230.354 445.922 230.121 445.722 229.807 445.585C229.496 445.445 229.104 445.375 228.631 445.375H226.972V455H224.511ZM230.795 449.705L233.688 455H230.972L228.142 449.705H230.795Z" fill="black"/>
<g style="mix-blend-mode:darken">
<path d="M251 252V152L151 252H251Z" fill="#3ABCD9" fill-opacity="0.7"/>
</g>
<g style="mix-blend-mode:darken">
<rect x="251" y="252" width="102.5" height="197.5" fill="#3ABCD9" fill-opacity="0.7"/>
</g>
<g style="mix-blend-mode:darken">
<path d="M51 252C51 278.264 56.1732 304.272 66.2241 328.537C76.275 352.802 91.0069 374.85 109.579 393.421C128.15 411.993 150.198 426.725 174.463 436.776C198.728 446.827 224.736 452 251 452L251 252H51Z" fill="#3ABCD9" fill-opacity="0.7"/>
</g>
<defs>
<filter id="filter0_i_0_1" x="200.44" y="342.818" width="32.3764" height="17.9318" filterUnits="userSpaceOnUse" color-interpolation-filters="sRGB">
<feFlood flood-opacity="0" result="BackgroundImageFix"/>
<feBlend mode="normal" in="SourceGraphic" in2="BackgroundImageFix" result="shape"/>
<feColorMatrix in="SourceAlpha" type="matrix" values="0 0 0 0 0 0 0 0 0 0 0 0 0 0 0 0 0 0 127 0" result="hardAlpha"/>
<feOffset dy="4"/>
<feGaussianBlur stdDeviation="2"/>
<feComposite in2="hardAlpha" operator="arithmetic" k2="-1" k3="1"/>
<feColorMatrix type="matrix" values="0 0 0 0 0 0 0 0 0 0 0 0 0 0 0 0 0 0 0.25 0"/>
<feBlend mode="normal" in2="shape" result="effect1_innerShadow_0_1"/>
</filter>
</defs>
</svg>
